<?xml version="1.0" encoding="UTF-8"?>
<!DOCTYPE svg PUBLIC "-//W3C//DTD SVG 1.1//EN" "http://www.w3.org/Graphics/SVG/1.1/DTD/svg11.dtd">
<!-- Creator: CorelDRAW 2019 (64-Bit) -->
<svg xmlns="http://www.w3.org/2000/svg" xml:space="preserve" width="215.9mm" height="279.4mm" version="1.1" style="shape-rendering:geometricPrecision; text-rendering:geometricPrecision; image-rendering:optimizeQuality; fill-rule:evenodd; clip-rule:evenodd"
viewBox="0 0 21590 27940"
 xmlns:xlink="http://www.w3.org/1999/xlink"
 xmlns:xodm="http://www.corel.com/coreldraw/odm/2003">
 <defs>
  <style type="text/css">
   <![CDATA[
    .fil0 {fill:#FEFEFE}
   ]]>
  </style>
 </defs>
 <g id="Layer_x0020_1">
  <metadata id="CorelCorpID_0Corel-Layer"/>
  <g id="_1010674473280">
   <path class="fil0" d="M10406.39 12977.81c-89.98,-20.97 -1072.66,-8.27 -1248.51,-8.27 -108.78,0 -210.2,73.4 -262.18,134.69 -85.73,101.07 -93.35,200.91 -93.35,353.14 0,82.18 70.94,114.2 117.19,67.69 36.07,-36.26 8.7,-160.89 19.39,-220.5 22.11,-123.28 126.22,-211 268.56,-211l1091.41 0c86.99,0 166.39,34.08 208.97,80.42 47.66,51.86 72.16,120.8 72.16,217.24l0 1107.95c-161.84,0 -311.45,-5.2 -394.23,176.28 -41.27,90.46 -9.08,54.47 -157.36,165.1 -53.13,39.64 -97.77,77.58 -151.22,113.38 0,-111.33 23.27,-211.17 -66.74,-222.65 -151.53,-19.33 -602.03,24.5 -711.78,-15.83 -68.1,-25.03 -122.22,-75.1 -146.65,-142.74 -36.29,-100.49 -11.32,-567.18 -16.91,-710.7 -1.94,-49.79 -30.38,-73.52 -71.52,-69.05 -45.29,4.91 -61.27,39.05 -61.27,86.09l0 529.17c0,156.44 26.69,235.09 97.87,323.81 61.47,76.62 184.65,130.94 290.74,130.94l553.97 0c0,110.88 -26.85,289.39 66.15,289.39 53.68,0 287.66,-208.13 347.27,-248.04 0,206.7 0.25,413.42 -0.01,620.12 -0.14,119.31 11.08,182.17 64.71,249.48 40.31,50.59 119.03,106.05 208.15,106.05l396.87 0c0,104.77 -21.15,206.71 66.15,206.71 34.81,0 65.88,-32.88 89.76,-50.8l162.8 -126.6c96.93,-76.19 177.26,30.39 320.33,-117.89 102.55,-106.29 107.64,-366.18 30.69,-366.18 -32.22,0 -77,-6.07 -82.84,65.99 -7.99,98.65 45.08,268.36 -214.98,264.58 -93.02,-1.35 -67.98,6.55 -167.57,80.48 -29.7,22.04 -40.2,35.13 -72.04,51.98 0,-162.12 -10.26,-132.29 -347.27,-132.29 -98.82,0 -322.46,30.99 -322.46,-157.1l0 -818.56c0,-76.27 72.56,-148.83 148.83,-148.83l826.82 0c62.38,0 109.95,43.31 132.19,82.79 58.95,104.61 -58.84,486.09 101.05,440.38 31.2,-8.92 47.88,-32.11 47.88,-68.41l0 -281.12c0,-174.9 -131.03,-305.93 -305.92,-305.93l-537.44 0 0 -314.2c33.58,16.12 106.53,33.08 157.1,33.08l702.8 0 0 289.39c0,58.3 38.92,74.41 82.68,74.41 18.79,0 258.33,-188.07 290.53,-213.83 47.32,-37.86 93.81,-69.72 140.55,-107.5 25.77,-20.83 36.85,-40.53 81.05,-42.98 164.63,-9.12 323.28,33.17 494.77,-141.88 100.3,-102.39 134.12,-230.19 134.12,-378.51l0 -1331.19c0,-133.48 -34.51,-267.84 -121.77,-357.79 -117.97,-121.63 -212.44,-149.5 -334.13,-154.85l-197.29 0c-75.59,0 -101.77,122.72 16,124.56 99.5,1.55 184.88,-7.94 264.45,16.67 125.77,38.91 240.45,156.9 240.45,321.8l0 1430.41c0,105.33 -49.68,211.4 -127.32,269.55 -159.28,119.27 -306.61,47.23 -422.47,73.63 -44.46,10.13 -238.81,169.37 -288.93,207.17 -29.84,22.5 -88.95,77.91 -120.4,86.3 0,-373.16 101.11,-297.65 -694.53,-297.65 -143.84,0 -199.18,10.77 -297.66,-41.34 0,-198.44 0,-396.88 0,-595.32 0,-118.97 6.42,-178.08 -35.65,-262.01 -24.95,-49.8 -52.32,-94.21 -95.64,-127.61 -15.51,-11.96 -34.07,-15.59 -34.07,-40.33l0 -702.8c0,-131.61 75.86,-235.34 160.36,-286.12 112.87,-67.82 230.58,-52.88 401.88,-52.88l666.73 -3c58.55,-16.47 56.44,-121.03 -21.81,-121.03l-892.97 0c-204.39,0 -380.76,161.66 -430.32,355.18 -34.8,135.93 -16.17,582.97 -16.17,769.31z"/>
   <path class="fil0" d="M11009.97 12969.54l206.71 0 0 620.12 -206.71 0 0 -620.12zm678 -82.68c0,159.53 496.1,-8.56 496.1,99.22l0 595.31c0,19.36 -13.72,33.08 -33.07,33.08l-611.86 0c-64.8,0 -116.41,-25.59 -163.36,-59.88 -35.07,-25.62 -35.07,-20.1 -35.07,-39.34l0 -454.76c0,-20.65 10.5,-22.06 22.39,-35.49l264.76 -305.74c90.99,-121.83 72.89,-204.03 98.93,-273.15 0.49,-1.3 1.4,-3.97 2.53,-5.74 27.7,118.91 71.97,161.2 -1.09,337.92 -9.11,22.04 -40.26,81.98 -40.26,108.57zm-347.26 -24.81c-33.31,-8.89 -33.17,-24.8 -82.69,-24.8l-305.92 0c-50.76,0 -74.42,39.35 -74.42,90.95l0 702.8c0,61.98 28.97,90.95 90.96,90.95 61.02,0 286.33,7.87 330.63,-8.36 24.48,-8.97 26.03,-6.27 33.17,-32.98 61.25,32.41 129.95,66.15 223.24,66.15l595.32 0c107.28,0 178.69,-100.17 164.26,-221.93 -32.03,-270.34 72.93,-593.17 -89.96,-679.2 -70.36,-37.16 -276.35,-16.65 -380.23,-16.65 108.01,-204.13 25.35,-520.9 -107.49,-520.9 -227.73,0 -81.99,204.15 -237.69,365.89l-159.18 188.08z"/>
   <path class="fil0" d="M9819.34 14003.07l-148.82 0c8.35,-35.84 21.68,-103.03 24.8,-140.56l140.56 0c0,56.86 -16.54,87.88 -16.54,140.56zm-231.51 -272.85c-79.87,0 -265.43,-14.81 -295.71,18.48 -28.08,30.87 -39.88,113.81 89.01,113.81l181.9 0c-0.57,25.26 -10.41,84.27 -15.31,108.72 -7.26,36.18 1.75,32.82 -92.11,31.91 -47.33,-0.45 -181.97,-18.87 -181.97,66.08 0,92.5 156.25,66.15 248.05,66.15 -10.58,22.04 -33.08,175.3 -33.08,214.97 0,38.08 23.3,59.71 59.21,61.51 73.2,3.65 71.38,-92.62 82.52,-159.57 6.09,-36.62 15.37,-72.72 15.37,-116.91l148.83 0c-7.17,86.17 -85.3,282.37 31.74,276.48 38.06,-1.92 53.84,-23.59 62.65,-58.07 17.92,-70.13 21.88,-149.65 37.9,-218.41l261.42 -3.17c68.06,-19.28 60.46,-129.13 -21.64,-129.13l-214.97 0c0,-56.86 16.53,-87.88 16.53,-140.56 166.22,0 264.59,25.76 264.59,-82.68 0,-69.97 -162.92,-49.61 -239.78,-49.61 1.85,-83.11 88.28,-281.12 -33.07,-281.12 -59.83,0 -64.36,70.75 -72.08,118.09 -8.89,54.51 -15.65,113.68 -27.14,163.03l-140.56 0c0,-49.04 17.33,-117.47 24.5,-165.91 4.61,-31.14 12.34,-50.68 1.04,-73.94 -7.06,-14.53 -99.41,-124.29 -131.88,75.64 -7.8,48.02 -24.95,119.16 -25.96,164.21z"/>
   <path class="fil0" d="M10621.37 15135.83c0,-83.86 103.42,-160.06 171.97,-64.49 80.32,111.99 114.93,-43 191.83,-43 82.73,0 230.77,171.69 -132.29,363.8 -95.6,-50.58 -231.51,-133.3 -231.51,-256.31zm-124.03 -16.54c0,177.91 90.11,263.95 231.04,347.74 136.26,81.02 108.29,80.39 234.6,10.41 72.21,-40.01 148.68,-102.83 196,-167.8 116.47,-159.93 23.99,-432.84 -194.22,-409.33 -56.08,6.04 -77.12,22.07 -111.88,45.35 -203.5,-136.28 -355.54,43.98 -355.54,173.63z"/>
  </g>
 </g>
</svg>
