<?xml version="1.0" encoding="UTF-8"?>
<!DOCTYPE svg PUBLIC "-//W3C//DTD SVG 1.1//EN" "http://www.w3.org/Graphics/SVG/1.1/DTD/svg11.dtd">
<!-- Creator: CorelDRAW 2019 (64-Bit) -->
<svg xmlns="http://www.w3.org/2000/svg" xml:space="preserve" width="215.9mm" height="279.4mm" version="1.1" style="shape-rendering:geometricPrecision; text-rendering:geometricPrecision; image-rendering:optimizeQuality; fill-rule:evenodd; clip-rule:evenodd"
viewBox="0 0 21590 27940"
 xmlns:xlink="http://www.w3.org/1999/xlink"
 xmlns:xodm="http://www.corel.com/coreldraw/odm/2003">
 <defs>
  <style type="text/css">
   <![CDATA[
    .fil0 {fill:#FEFEFE}
   ]]>
  </style>
 </defs>
 <g id="Layer_x0020_1">
  <metadata id="CorelCorpID_0Corel-Layer"/>
  <g id="_1010675427024">
   <path class="fil0" d="M10274.09 13498.71c0,-114.63 25.44,-400.63 49.61,-504.37 285.7,66.56 656.88,66.56 942.58,0 14.39,61.78 28.86,170.62 33.08,239.78 7.77,127.49 16.53,189.37 16.53,330.73l-1041.8 0 0 -66.14zm450.23 -1645.39l137.33 0c129.68,4.94 259.33,23.81 389.77,56.21 159.86,39.7 188.15,62.23 327.9,118.58 31.57,12.72 48.52,23.95 75.94,39.81 138.83,80.32 139.23,78.98 270.14,176.35l173.91 156.82c437.93,437.61 622.12,1079.09 466.93,1727.84 -53.73,224.6 -233.35,126.35 -233.35,22.97 0,-31.11 32.32,-136.4 39.09,-175.88l27.05 -187.93 -859.9 0c0,89.52 -6.26,343.33 -28.16,401.79 -47.32,126.29 -211.61,63.72 -211.61,-13.18 0,-119.91 16.53,-239.08 16.53,-388.61l-1041.8 0c0,152.26 16.54,272.12 16.54,396.88 0,55.7 -152.42,128.98 -206.61,16.44 -24.97,-51.85 -33.17,-333.13 -33.17,-413.32l-859.9 0c7.98,34.24 6.98,63.34 12.79,102.97l53.36 269.11c0,41.97 -43.78,99.21 -99.22,99.21 -121.23,0 -127.08,-85.4 -156.47,-232.14 -23.15,-115.6 -33.7,-223.49 -33.7,-354.9 0,-546.49 248.47,-996.79 522.96,-1271.25 21.3,-21.29 36.67,-36.57 57.81,-57.94 24.17,-24.45 38.49,-31.76 62.06,-53.7 69.35,-64.51 177.67,-136.7 259.9,-186.59 133.75,-81.14 320.43,-156.51 474.75,-194.98 127.2,-31.7 253.32,-49.75 379.13,-54.56zm756.94 1083.15c56.33,-4.69 243.06,-88.32 297.62,-115.79l137.88 -68.83c48.27,-25.84 88.28,-55.25 135,-79.97l121.45 184.48c82.31,138.11 141.43,279.64 181.28,438.84 28.61,114.34 28.59,201.19 44.54,269.65l-859.9 0 -17.92 -345.87c-4.98,-47.62 -26.74,-252.93 -39.95,-282.51zm-1430.41 587.04l0 41.34 -859.9 0c9.15,-39.25 11.75,-87.3 17.91,-130.92 30.56,-216.46 135.77,-496.81 265.52,-668.79l63.84 -93.26c34.99,9.34 325.12,207.42 570.51,264.59 -33.18,142.41 -57.88,450.63 -57.88,587.04zm719.34 -1446.94c90.48,0 129.82,17.73 208.01,114.45 43.05,53.26 75.09,111.4 106.3,174.81 56.94,115.67 107.87,273.74 140.44,413.54l-172.1 26.34c-146.21,18.2 -353.94,24.32 -501.39,2.22l-186.41 -28.56c31.98,-137.25 83.75,-300.91 140.53,-413.45 41.09,-81.44 159.36,-289.35 264.62,-289.35zm438.21 49.61c195.5,45.54 457.58,183.06 610.01,316.03 26.65,23.24 58.01,35.2 67.99,72.57l-211.48 110.99c-40.51,16.78 -72.89,34.33 -114.42,50.94 -40.62,16.24 -85.56,27.97 -120.59,44.78 -6.14,-12.8 -60.83,-222.99 -98.02,-315.39 -20.69,-51.41 -38.42,-94.1 -61.77,-144.93l-52.84 -96c-2.21,-4.04 -8.68,-15.58 -8.86,-15.94l-10.02 -23.05zm-1050.06 587.04c-118.71,-2.64 -427.43,-192.07 -454.76,-198.44 9.41,-35.25 36.97,-47.38 63.54,-68.75 173.51,-139.49 294.45,-208.69 506.97,-286.79 30.09,-11.06 81.58,-20.63 107.49,-33.06 -8.89,33.27 -50.67,90.73 -69.04,129.39 -47.54,100.01 -152.12,363.81 -154.2,457.65z"/>
   <path class="fil0" d="M9190.95 15747.67l0 -950.85c0,-51.63 64.12,-115.76 115.76,-115.76l2976.57 0c51.63,0 115.75,64.13 115.75,115.76l0 942.58c0,70.74 -59.54,124.03 -107.48,124.03l-2993.11 0c-52.14,0 -107.49,-64.22 -107.49,-115.76zm-223.24 -934.31l0 917.77c0,103.61 36.54,173.71 95.58,243.42 45.4,53.59 140.67,112.12 235.15,112.12l2993.11 0c170.91,0 330.73,-164.71 330.73,-355.54l0 -917.77c0,-195.83 -159.71,-355.54 -355.54,-355.54l-2943.5 0c-195.83,0 -355.53,159.71 -355.53,355.54z"/>
   <path class="fil0" d="M10571.75 15615.38l132.29 0 90.95 -314.2c0.63,28.24 64.95,294.48 74.42,314.2l132.29 0 86.17 -310.71c29.58,-104.89 63.33,-205.82 87.46,-309.41l-148.83 0 -82.68 314.19c-23.84,-37.58 -56.98,-260.62 -82.68,-314.19l-132.3 0c-3.92,47.14 -26.07,103.75 -38.08,152.09 -10.27,41.35 -35.53,117.78 -36.33,153.83l-16.53 0c-1.36,-60.8 -60.53,-238.42 -66.15,-305.92l-157.1 0c48.35,207.52 108.49,411.49 157.1,620.12z"/>
   <path class="fil0" d="M11539.13 15615.38l140.56 0c5.43,-65.2 68.84,-230.62 74.42,-297.66l16.53 0c1.52,68.09 60.85,233.91 66.15,297.66l132.29 0 173.64 -620.12 -148.83 0c-15.62,67.02 -73.3,255.83 -74.42,305.92l-16.53 0c-1.42,-63.54 -60.93,-243.17 -66.15,-305.92l-132.29 0c-16.19,33.72 -33.23,116.35 -44.6,162.1l-46.35 160.36c-4.28,-51.36 -41.6,-187.88 -56.26,-249.67 -20.48,-86.33 19.79,-72.79 -166.99,-72.79 0.86,38.37 59.14,253.13 72.75,307.59 15.63,62.49 75.12,269.12 76.08,312.53z"/>
   <path class="fil0" d="M9604.36 15615.38l132.29 0c3.53,-42.39 25.7,-100.94 37.86,-144.05 11.63,-41.25 35.68,-114.22 36.56,-153.61l16.54 0c1.38,62.16 59.42,216.86 66.14,297.66l140.56 0c1.35,-60.47 163.94,-556.09 165.37,-620.12l-148.83 0 -74.41 305.92c-28.25,-20.69 -73.91,-268.26 -82.69,-305.92l-132.29 0c-15.03,31.31 -30.15,115.09 -42.33,156.11 -10.93,36.79 -37.05,126.65 -40.35,166.35 -6.27,-9.88 -1.29,0.95 -7.75,-17.06 -21.41,-59.75 -52.23,-258.08 -74.93,-305.4l-148.83 0 157.09 620.12z"/>
  </g>
 </g>
</svg>
