<?xml version="1.0" encoding="UTF-8"?>
<!DOCTYPE svg PUBLIC "-//W3C//DTD SVG 1.1//EN" "http://www.w3.org/Graphics/SVG/1.1/DTD/svg11.dtd">
<!-- Creator: CorelDRAW 2019 (64-Bit) -->
<svg xmlns="http://www.w3.org/2000/svg" xml:space="preserve" width="215.9mm" height="279.4mm" version="1.1" style="shape-rendering:geometricPrecision; text-rendering:geometricPrecision; image-rendering:optimizeQuality; fill-rule:evenodd; clip-rule:evenodd"
viewBox="0 0 21590 27940"
 xmlns:xlink="http://www.w3.org/1999/xlink"
 xmlns:xodm="http://www.corel.com/coreldraw/odm/2003">
 <defs>
  <style type="text/css">
   <![CDATA[
    .fil1 {fill:#FEFEFE}
    .fil0 {fill:#373435}
   ]]>
  </style>
 </defs>
 <g id="Layer_x0020_1">
  <metadata id="CorelCorpID_0Corel-Layer"/>
  <rect class="fil0" x="8678.33" y="11853.33" width="4233.33" height="4233.33"/>
  <g id="_1010741527312">
   <path class="fil1" d="M9887.86 12911.67c328.31,0 746.3,-36.26 1011.23,94.35 243.73,120.15 221.95,208.03 368.38,208.03 58.56,0 122.73,-75.39 160.45,-104.14 168.21,-128.18 373.7,-198.24 614.4,-198.24l566.97 0 0 2116.66 -652.01 0c-204.18,0 -392.56,65.8 -557.66,151.05 -54.09,27.94 -96.59,65.82 -151.05,94.64 -123.59,-65.39 -99.3,-82.63 -306.28,-166.19 -102.04,-41.2 -264.34,-79.5 -402.42,-79.5l-652.01 0 0 -2116.66zm-302.38 -170.09l0 2456.84c0,52.71 57.93,111.91 100.54,126.24 107.5,36.18 820,-46.94 1118.44,62.75 61.61,22.64 108.2,40.93 162.53,73.7 120.74,72.84 130.39,71.62 130.39,143.64 0,115.85 -63.69,179.54 -179.54,179.54l-1757.59 0c-115.85,0 -179.54,-63.69 -179.54,-179.54l0 -3269.5c0,-118.86 60.68,-179.54 179.54,-179.54l576.42 0c0,179.61 148.75,302.38 274.03,302.38 98.15,0 166.72,-10.02 243.71,-87.01 56.59,-56.6 87.02,-124.79 87.02,-215.37l576.41 0c131.74,0 180.5,73.02 179.76,207.66 -0.71,132.36 -0.22,264.74 -0.22,397.11 -129.23,-68.38 -352.2,-151.2 -548.06,-151.2l-831.55 0c-59.01,0 -132.29,73.29 -132.29,132.3zm-907.15 -472.47l0 3401.78c0,202.41 213.37,415.78 415.78,415.78l1889.88 0c127.38,0 253.18,-88.6 310.66,-161.81 95.31,-121.38 105.11,-167.57 105.11,-376.81 242.94,-162.68 365.71,-217.35 708.71,-217.33 67.97,0 657.63,6.1 695.44,-3.82 46.61,-12.22 107.76,-74.23 107.76,-128.48l0 -2456.84c0,-59.01 -73.28,-132.3 -132.29,-132.3l-831.55 0c-195.86,0 -418.84,82.82 -548.07,151.2 0,-163.78 20.52,-497.53 -32.14,-629.32 -56.73,-142.01 -225.35,-277.83 -383.63,-277.83l-1889.88 0c-202.41,0 -415.78,213.37 -415.78,415.78z"/>
   <path class="fil1" d="M11399.76 14707.06c0,164.77 141.97,218.52 266.04,124.29 38.3,-29.08 45.96,-34.86 96.9,-54.29 63,-24.03 164.37,-47.18 241.77,-51.16 166.31,-8.56 327.6,28.73 399.64,-35.03 117.82,-104.29 24.13,-267.3 -78.31,-267.3 -237.4,0 -491.9,-21.58 -705.67,78.63 -73.25,34.33 -220.37,110.8 -220.37,204.86z"/>
   <path class="fil1" d="M11399.76 13497.53c0,164.78 141.97,218.52 266.04,124.3 38.3,-29.08 45.96,-34.87 96.9,-54.29 302.21,-115.27 537.67,5.63 641.41,-86.2 117.82,-104.29 24.13,-267.29 -78.31,-267.29 -237.4,0 -491.9,-21.59 -705.67,78.62 -73.25,34.34 -220.37,110.81 -220.37,204.86z"/>
   <path class="fil1" d="M10039.05 14555.86c0,57.48 -1.16,83.09 49.09,130.46 75.19,70.88 226.95,30.23 404.53,39.58 109.07,5.75 249.94,38.46 333.47,101.21 147.01,110.44 271.24,27.35 271.24,-120.05 0,-161.11 -392.7,-283.49 -566.97,-283.49l-359.07 0c-59.01,0 -132.29,73.29 -132.29,132.29z"/>
   <path class="fil1" d="M11399.76 14102.29c0,164.78 141.97,218.52 266.04,124.3 252.05,-191.42 628.81,-43.57 738.31,-140.49 117.82,-104.28 24.13,-267.29 -78.31,-267.29 -237.4,0 -491.9,-21.58 -705.67,78.62 -73.25,34.34 -220.37,110.81 -220.37,204.86z"/>
   <path class="fil1" d="M10039.05 13951.1c0,302.27 350.61,82.42 695.44,221.15 142.72,57.41 98.64,100.13 230.6,100.13 80.76,0 297.95,-193.99 -88.08,-374.95 -213.77,-100.2 -468.27,-78.62 -705.67,-78.62 -59.01,0 -132.29,73.28 -132.29,132.29z"/>
   <path class="fil1" d="M10039.05 13346.34c0,336.11 473.09,35.37 787.09,271.24 147.01,110.44 271.24,27.36 271.24,-120.05 0,-161.1 -392.7,-283.48 -566.97,-283.48l-359.07 0c-59.01,0 -132.29,73.28 -132.29,132.29z"/>
  </g>
 </g>
</svg>
