<?xml version="1.0" encoding="UTF-8"?>
<!DOCTYPE svg PUBLIC "-//W3C//DTD SVG 1.1//EN" "http://www.w3.org/Graphics/SVG/1.1/DTD/svg11.dtd">
<!-- Creator: CorelDRAW 2019 (64-Bit) -->
<svg xmlns="http://www.w3.org/2000/svg" xml:space="preserve" width="215.9mm" height="279.4mm" version="1.1" style="shape-rendering:geometricPrecision; text-rendering:geometricPrecision; image-rendering:optimizeQuality; fill-rule:evenodd; clip-rule:evenodd"
viewBox="0 0 21590 27940"
 xmlns:xlink="http://www.w3.org/1999/xlink"
 xmlns:xodm="http://www.corel.com/coreldraw/odm/2003">
 <defs>
  <style type="text/css">
   <![CDATA[
    .fil0 {fill:#FEFEFE}
   ]]>
  </style>
 </defs>
 <g id="Layer_x0020_1">
  <metadata id="CorelCorpID_0Corel-Layer"/>
  <g id="_1010674453728">
   <path class="fil0" d="M8827.19 15648.43c0,-65.05 -21.83,-214.97 99.21,-214.97l1207.15 0c0,146.93 141.51,289.38 289.39,289.38l744.13 0c147.88,0 289.39,-142.45 289.39,-289.38l1207.15 0c120.2,0 99.21,152.51 99.21,223.24 0,108.48 -109.9,198.43 -198.43,198.43l-3538.77 0c-50.2,0 -108.51,-35.31 -136.88,-61.55 -35.67,-33 -61.55,-80.04 -61.55,-145.15zm4084.46 -930.73l0 102.22c-10.21,133.72 -60.45,264.11 -151.23,371.36 -29.42,34.76 -64.15,56.92 -88.55,93.35 63.63,1.42 133.92,38.82 167.4,72.38 52.45,52.58 68.27,108.98 72.38,170.37l0 137.59c0,175.5 -172.69,347.26 -372.07,347.26l-3489.15 0c-197.03,0 -372.07,-168.99 -372.07,-338.99l0 -140.98c4.27,-66.39 20.88,-128.78 76.62,-179.28 93.26,-84.5 192.75,-68.35 320.25,-68.35l0 -1661.89c0,-42.68 -80.75,-25.52 -170.45,-160.28 -91.79,-137.88 -69.33,-314.06 -69.33,-501.18l267.71 -798.89c16.17,-48.5 30.73,-92.13 45.43,-136.47 15.67,-47.26 17.03,-98.16 75.47,-98.16l3141.89 0c59.16,0 60.9,54.36 77.54,104.37l136.38 401.04c25.02,75.12 174.69,503.88 174.69,544.65 0,286.6 35.43,482.75 -239.78,628.38l0 545.69c40.71,9.49 123.62,67.06 154.69,93.36 147.95,125.22 229.02,297.38 242.18,472.45zm-2629.27 715.76l1025.25 0c-5.75,69.07 -74.25,140.56 -148.83,140.56l-727.59 0c-80.04,0 -139.66,-69.08 -148.83,-140.56zm-1058.32 -1785.92c57.17,27.43 144.11,-3.75 198.43,-8.27 0,444.79 -6.72,932.19 -0.54,1373.06 1.36,97.04 61.72,73.89 157.64,73.87l2075.3 0c19.07,71.41 132.01,160.97 157.1,198.43l-2587.93 0 0 -1637.09zm3026.14 1637.09c-472.92,0 -706.02,-554.9 -374.15,-886.77 43.56,-43.56 88.24,-81.81 149.49,-106.83 497.78,-203.36 871.34,309.19 690.57,682.31 -41.7,86.1 -93.59,154.82 -169.26,211.07 -81.16,60.34 -183.75,100.22 -296.65,100.22zm-677.99 -529.16c0,101.39 15.46,133.51 16.54,181.9l-1984.36 0c-19.05,0 -24.8,-5.75 -24.8,-24.8l0 -1331.18c0,-32.36 62.75,-55.52 74.41,-99.21 45.23,12.07 49.45,57.26 149.06,115.52 249.94,146.17 575.73,-12.12 603.34,-115.52 48.37,12.91 58.33,68.7 148.58,115.99 283.25,148.42 579.61,-25.3 603.82,-115.99 72.33,19.31 91.88,173.63 413.41,173.63 99.29,0 221.07,-47.21 287.46,-109.42 24.99,-23.41 40.87,-54.74 76.34,-64.21 13.23,49.53 68.71,51 74.67,107.22l-0.26 545.96c-50.43,11.75 -134.32,63.44 -172.54,92.04 -151.69,113.49 -265.67,312.73 -265.67,528.07zm595.31 -1116.2c54.32,4.52 141.26,35.7 198.43,8.27l0 454.75c-37.39,-0.83 -32.85,-8.27 -74.41,-8.27l-124.02 0 0 -454.75zm124.02 -132.29c-94.96,0 -176.31,-40.77 -230.42,-100.31 -83.37,-91.73 -58.97,-215.61 -58.97,-370.98l595.31 0 0 214.98c0,157.86 -144.72,256.31 -305.92,256.31zm-1041.79 -239.78l0 -231.51 595.31 0c0,180.46 26.84,297.45 -88.73,399.09 -123.02,108.18 -379.54,92.1 -473.52,-60.08 -12.62,-20.42 -33.06,-74.18 -33.06,-107.5zm-752.4 -16.53l0 -214.98 595.31 0 0 214.98c0,156.56 -139.82,256.31 -297.65,256.31 -156.87,0 -297.66,-100.56 -297.66,-256.31zm-752.4 0l0 -214.98 595.31 0c0,155.37 24.4,279.25 -58.97,370.98 -1.61,1.78 -6.25,6.89 -7.92,8.62l-8.26 8.27c-167.79,161.77 -520.16,76.86 -520.16,-172.89zm-752.4 0l0 -214.98 595.31 0c0,195.52 38.87,376.13 -185.53,451.13 -110.63,36.97 -243.01,17.3 -320.92,-52.16 -46.53,-41.49 -88.86,-99.12 -88.86,-183.99zm1562.68 -1174.08l479.55 0 57.88 810.28 -595.31 0 57.88 -810.28zm-206.71 810.28l-587.03 0 154.19 -771.84c5.42,-24.4 0.58,-38.44 27.7,-38.44l454.75 0 -49.61 810.28zm835.09 -810.28l463.02 0c29.51,0 24.37,24.7 37.85,86.17l144.04 724.11 -587.03 0c0,-161.25 -39.94,-447.57 -41.21,-603.71 -0.38,-46.32 -8.16,-52.63 -8.54,-98.95 -0.41,-49.64 -8.13,-67.1 -8.13,-107.62zm636.65 0l479.55 0c23.61,49.21 48.05,139.92 67.2,197.38 22.42,67.28 46.82,133.42 70.34,202.51l135.31 410.39 -595.31 0c0,-54.06 -25.16,-146.48 -36.52,-203.26l-120.57 -607.02zm-2207.6 810.28l-595.31 0 272.85 -810.28 479.55 0c-8.5,102.2 -157.09,731.78 -157.09,810.28z"/>
   <path class="fil0" d="M12233.66 14565.3c0,36.38 41.49,91.27 57.88,115.76 -50.2,0 -250.43,-8.46 -287.61,10.04 -64.5,32.09 -70.54,155.14 72.24,155.72 68.92,0.27 138.13,-0.4 207.1,-0.4 -9.92,42.58 -49.61,69.9 -49.61,115.75 0,63.36 52.4,74.42 99.22,74.42 41.59,0 190.17,-235.06 190.17,-272.85 0,-29.87 -64.07,-125.05 -81.04,-150.48 -54.14,-81.17 -62.1,-122.37 -133.93,-122.37 -40.87,0 -74.42,33.55 -74.42,74.41z"/>
  </g>
 </g>
</svg>
